<svg xmlns="http://www.w3.org/2000/svg" version="1.1" xmlns:xlink="http://www.w3.org/1999/xlink" xmlns:svgjs="http://svgjs.dev/svgjs" viewBox="0 0 1920 1080"><rect width="1920" height="1080" fill="#c4c4c4"></rect><g transform="matrix(-1.15,1.408343819019456e-16,-1.408343819019456e-16,-1.15,2011.766262435913,1161)"><path d="M0,-1080C13.996546461630658,-1002.0557607959896,76.51384873997907,-752.3663969226939,83.97927876978395,-612.3345647759375C91.44470879958882,-472.30273262918104,58.611791862603965,-377.215563427052,44.79258017882924,-239.8090071194613C30.973368495054515,-102.40245081187061,-7.408362480867444,31.636778230306078,1.0640086671355817,212.10477306960678C9.536379815138607,392.5727679089075,90.7242590904399,679.3918660094687,95.62680706684739,842.998961916343C100.52935504325488,1006.6060578232173,54.44924405146138,1059.0141561103414,30.479296525580537,1193.7473485108524C6.5093489996997,1328.4805409113633,-43.112995334174194,1490.356007737884,-48.19287808843762,1651.3981163194087C-53.27276084270104,1812.4402249009333,-8.032146348072937,2075.2330193865682,0,2160L 1920 2160 L 1920 -1080 Z" fill="url(&quot;#SvgjsLinearGradient1187&quot;)"></path><path d="M274.2857142857143,-1080C291.1467993637806,-967.6841607133509,361.81166586023835,-640.2296441536954,375.45222475411225,-406.1049642801054C389.09278364798615,-171.98028440651532,362.74501000166686,110.25488937652449,356.1290676489577,324.7480792415404C349.5131252962485,539.2412691065563,339.70687737601327,674.9357934679684,335.7565706378571,880.8541749099899C331.806263899701,1086.7725563520114,342.6723699453781,1347.0673970453342,332.42722722002094,1560.2583678936692C322.1820844946638,1773.449338742004,283.97596644143204,2060.0430613156113,274.2857142857143,2160L 1920 2160 L 1920 -1080 Z" fill="url(&quot;#SvgjsLinearGradient1188&quot;)"></path><path d="M548.5714285714286,-1080C566.6035934148997,-973.5295504932244,647.9693187641943,-646.9435877542242,656.7644176322556,-441.1773029593468C665.5595165003168,-235.41101816446943,616.7811850303874,-45.151307562968725,601.3420217797959,154.5977087692641C585.9028585292044,354.34672510149693,563.6760932489714,529.3613804632793,564.1294381287069,757.3167950340502C564.5827830084423,985.2722096048211,606.6550926510886,1288.549662032898,604.0620910582088,1522.3301961938896C601.469089465329,1756.1107303548813,557.8198723192253,2053.7216993656484,548.5714285714286,2160L 1920 2160 L 1920 -1080 Z" fill="url(&quot;#SvgjsLinearGradient1189&quot;)"></path><path d="M822.8571428571428,-1080C822.0242097406759,-985.3431018675894,811.739464525674,-682.0339440486433,817.8595441583416,-512.0586112055364C823.9796237910092,-342.0832783624295,860.1282620172923,-187.21177333201706,859.5776206531485,-60.148002941358754C859.0269792890048,66.91576744929957,832.6703370408422,115.63266099647586,814.5556959734788,250.32401113841357C796.4410549061154,385.01536128035127,757.0389692930595,597.3395677070224,750.889774248968,748.0000979102675C744.7405792048766,898.6606281135126,776.5523000721889,994.2313954071001,777.6605257089298,1154.2871923578841C778.7687513456706,1314.3429893086682,750.0063585447106,1540.7160783412858,757.5391280694128,1708.3348796149717C765.071897594115,1875.9536808886576,811.9708070591878,2084.7224799358287,822.8571428571428,2160L 1920 2160 L 1920 -1080 Z" fill="url(&quot;#SvgjsLinearGradient1190&quot;)"></path><path d="M1097.142857142857,-1080C1106.2465676855682,-982.6146084935556,1153.1745714188228,-680.2791793931559,1151.7651203991227,-495.68765096133325C1150.3556693794226,-311.0961225295106,1084.921202777428,-162.17545681592946,1088.6861510246563,27.549170590935915C1092.4510992718845,217.2737979978013,1175.4937795990036,457.0908702258496,1174.3548098824913,642.6601134798591C1173.215840165979,828.2293567338686,1076.2521519061172,974.7390916592085,1081.852332725582,1140.9646301149928C1087.452513545047,1307.1901685707771,1205.4074740630676,1470.1741159003973,1207.9558947992803,1640.0133442145652C1210.5043155354929,1809.8525725287332,1115.611696752261,2073.335557369094,1097.142857142857,2160L 1920 2160 L 1920 -1080 Z" fill="url(&quot;#SvgjsLinearGradient1191&quot;)"></path><path d="M1371.4285714285716,-1080C1371.4884221351922,-1007.3441072108767,1375.5660118703784,-809.1400868571806,1371.7876756682947,-644.06464326526C1368.009339466211,-478.9891996733394,1339.541257943622,-274.2826375867454,1348.7585542160691,-89.54733844847624C1357.9758504885162,95.18796068979296,1423.8474981926295,273.67626253210176,1427.0914533029772,464.3471515643553C1430.335408413325,655.0180405966088,1379.888138729016,862.4702641453448,1368.2222848781562,1054.4779957450446C1356.5564310272964,1246.4857273447444,1356.5619491060825,1432.1398737867285,1357.0963301978184,1616.3935411625544C1357.6307112895543,1800.6472085383803,1369.0398645567793,2069.3989235270924,1371.4285714285716,2160L 1920 2160 L 1920 -1080 Z" fill="url(&quot;#SvgjsLinearGradient1192&quot;)"></path><path d="M1645.7142857142856,-1080C1657.359743745232,-1014.6284726767776,1699.1450778217456,-826.2396930982549,1715.5870338999641,-687.7708360606657C1732.0289899781826,-549.3019790230766,1751.3897949460138,-409.21241211164215,1744.3660221835964,-249.18685777446495C1737.342249421179,-89.16130343728776,1706.492144381737,109.8933266382181,1673.44439732546,272.38248996239747C1640.3966502691828,434.8716532865768,1562.6873002159941,551.9238767746576,1546.0795398459334,725.7481221706114C1529.4717794758726,899.5723675665652,1565.484565550607,1143.1751470422032,1573.7978351050954,1315.3279623381202C1582.1111046595838,1487.4807776340372,1583.973082071332,1617.8863410024674,1595.9591571728638,1758.665013946114C1607.9452322743955,1899.4436868897606,1637.4217642907151,2093.1108356576856,1645.7142857142856,2160L 1920 2160 L 1920 -1080 Z" fill="url(&quot;#SvgjsLinearGradient1193&quot;)"></path></g><defs><linearGradient x1="0.1" y1="0" x2="0" y2="1" id="SvgjsLinearGradient1187"><stop stop-color="#c4c4c4" offset="0"></stop><stop stop-color="#c4c4c4" offset="0"></stop></linearGradient><linearGradient x1="0.1" y1="0" x2="0" y2="1" id="SvgjsLinearGradient1188"><stop stop-color="#a8a8a8" offset="0"></stop><stop stop-color="#a8a8a8" offset="0.14285714285714285"></stop></linearGradient><linearGradient x1="0.1" y1="0" x2="0" y2="1" id="SvgjsLinearGradient1189"><stop stop-color="#8c8c8c" offset="0"></stop><stop stop-color="#8c8c8c" offset="0.2857142857142857"></stop></linearGradient><linearGradient x1="0.1" y1="0" x2="0" y2="1" id="SvgjsLinearGradient1190"><stop stop-color="#707070" offset="0"></stop><stop stop-color="#707070" offset="0.42857142857142855"></stop></linearGradient><linearGradient x1="0.1" y1="0" x2="0" y2="1" id="SvgjsLinearGradient1191"><stop stop-color="#545454" offset="0"></stop><stop stop-color="#545454" offset="0.5714285714285714"></stop></linearGradient><linearGradient x1="0.1" y1="0" x2="0" y2="1" id="SvgjsLinearGradient1192"><stop stop-color="#383838" offset="0"></stop><stop stop-color="#383838" offset="0.7142857142857143"></stop></linearGradient><linearGradient x1="0.1" y1="0" x2="0" y2="1" id="SvgjsLinearGradient1193"><stop stop-color="#1c1c1c" offset="0"></stop><stop stop-color="#1c1c1c" offset="0.8571428571428571"></stop></linearGradient></defs></svg>